<?xml version="1.0" ?><svg data-name="Livello 1" id="Livello_1" viewBox="0 0 128 128" xmlns="http://www.w3.org/2000/svg"><title/><path d="M98.78,0H29.22A7.21,7.21,0,0,0,22,7.19V120.8a7.08,7.08,0,0,0,4.42,6.63,7.22,7.22,0,0,0,7.87-1.5L63.14,97.59a1.23,1.23,0,0,1,1.72,0l28.86,28.33a7.21,7.21,0,0,0,7.87,1.5A7.08,7.08,0,0,0,106,120.8V7.19A7.21,7.21,0,0,0,98.78,0ZM100,120.8a1.14,1.14,0,0,1-.74,1.09,1.17,1.17,0,0,1-1.34-.25h0L69.06,93.31a7.26,7.26,0,0,0-10.13,0L30.08,121.64a1.18,1.18,0,0,1-1.34.25A1.14,1.14,0,0,1,28,120.8V7.19A1.21,1.21,0,0,1,29.22,6H98.78A1.21,1.21,0,0,1,100,7.19Z"/></svg>