<?xml version="1.0" ?><svg id="Layer_1" style="enable-background:new 0 0 256 256;" version="1.1" viewBox="0 0 256 256" xml:space="preserve" xmlns="http://www.w3.org/2000/svg" xmlns:xlink="http://www.w3.org/1999/xlink"><g><path d="M128,65.8c13.8,0,25-11.2,25-25c0-13.8-11.2-25-25-25c-13.8,0-25,11.2-25,25C103,54.5,114.2,65.8,128,65.8z M128,26   c8.1,0,14.8,6.6,14.8,14.8c0,8.1-6.6,14.8-14.8,14.8c-8.1,0-14.8-6.6-14.8-14.8C113.3,32.6,119.9,26,128,26z"/><path d="M73.6,162.9c-2.1,0.5-3.7,2.4-3.8,4.6L66,226c-0.1,2.3-2,4-4.3,4h-29c-2.3,0-4.2-1.8-4.3-4l-3.9-58.4   c-0.1-2.1-1.6-3.9-3.6-4.5c-1.1-0.3-4.3-1.3-4.8-1.9c-0.4-0.6-0.6-3.9-0.7-5.6l-3.5-61.9v0c5-1.5,13.2-4.1,17.5-5.5l14.3,13.4   c2,1.8,5,1.8,7,0l14.3-13.4c1.4,0.4,3.1,1,5,1.6c2.7,0.9,5.6-0.6,6.4-3.3c0.9-2.7-0.6-5.6-3.3-6.4c-4.3-1.4-7.8-2.5-7.8-2.5   c-1.8-0.6-3.7-0.1-5.1,1.1l-13,12.2l-13-12.2c-1.4-1.3-3.3-1.7-5.1-1.1c0,0-13.7,4.4-20.6,6.5c-4.3,1.3-6.9,4.7-6.9,9.2   c0,0.3,0,1.1,0,1.1s0,0,0,0l3.4,61c0,0,0,0.9,0.1,1.1c0.6,9,1.9,12.3,9.4,15.2l3.6,55c0.5,7.6,6.9,13.6,14.5,13.6h29   c7.6,0,14-6,14.5-13.6l3.7-57c0.4-1,0.4-2.2,0.1-3.3C79.2,163.7,76.3,162.2,73.6,162.9z"/><path d="M47.1,69.3c13.8,0,25-11.2,25-25s-11.2-25-25-25c-13.8,0-25,11.2-25,25S33.4,69.3,47.1,69.3z M47.1,29.6   c8.1,0,14.8,6.6,14.8,14.8s-6.6,14.8-14.8,14.8c-8.1,0-14.8-6.6-14.8-14.8S39,29.6,47.1,29.6z"/><path d="M166.7,83.9c-6.9-2.1-20.6-6.5-20.6-6.5c-1.8-0.6-3.7-0.1-5.1,1.1l-13,12.2l-13-12.2c-1.4-1.3-3.3-1.7-5.1-1.1   c0,0-13.7,4.4-20.6,6.5c-4.4,1.3-6.9,4.7-6.9,9.2l3.4,62.3l0.1,1c0.6,9,1.9,12.4,9.4,15.2l3.6,55c0.5,7.6,6.9,13.6,14.5,13.6h29.1   c7.6,0,14-6,14.5-13.6l3.6-55c7.5-2.9,8.8-6.3,9.4-15.2l3.5-62.4l0-0.9C173.6,88.5,171.1,85.2,166.7,83.9z M159.9,154.6l-0.1,1   c-0.1,1.6-0.3,4.8-0.7,5.4c-0.5,0.6-3.8,1.6-4.9,1.9c-2,0.6-3.5,2.4-3.6,4.6l-3.8,58.4c-0.1,2.3-2,4-4.3,4h-29.1   c-2.3,0-4.1-1.8-4.3-4l-3.8-58.4c-0.1-2.1-1.6-3.9-3.6-4.6c-1.1-0.3-4.3-1.3-4.8-1.9c-0.4-0.6-0.6-3.9-0.7-5.4l-3.5-61.9v-0.3   c5-1.5,13.2-4.1,17.5-5.5l14.3,13.4c2,1.8,5,1.8,7,0L145.8,88c4.3,1.4,12.5,4,17.5,5.5L159.9,154.6z"/><path d="M247.6,83.9c-6.9-2.1-20.6-6.5-20.6-6.5c-1.8-0.6-3.7-0.1-5.1,1.1l-13,12.2l-13-12.2c-1.4-1.3-3.3-1.7-5.1-1.1   c0,0-3.5,1.1-7.8,2.5c-2.7,0.9-4.2,3.7-3.3,6.4c0.9,2.7,3.7,4.2,6.4,3.3c1.9-0.6,3.6-1.2,5-1.6l14.3,13.4c2,1.8,5,1.8,7,0   l14.3-13.4c4.3,1.4,12.4,3.9,17.5,5.5l-3.4,61.1l-0.1,1c-0.1,1.6-0.3,4.8-0.7,5.4c-0.5,0.6-3.8,1.6-4.9,1.9c-2,0.6-3.5,2.4-3.6,4.6   l-3.8,58.4c-0.2,2.3-2.1,4-4.3,4h-29.1c-2.2,0-4.1-1.8-4.3-4l-3.9-58.4c-0.1-2.1-1.8-3.9-3.8-4.6c-2.7-0.9-5.4,0.6-6.3,3.3   c-0.3,1-0.3,2.1,0,3l3.8,57.4c0.5,7.6,6.8,13.6,14.5,13.6h29.1c7.6,0,14-6,14.5-13.6l3.6-55c7.5-2.9,8.8-6.2,9.4-15.1   c0-0.4,0.1-1.3,0.1-1.3l3.4-61.3V93C254.4,88.6,251.9,85.2,247.6,83.9z"/><path d="M208.9,69.3c13.8,0,25-11.2,25-25s-11.2-25-25-25c-13.8,0-25,11.2-25,25S195.1,69.3,208.9,69.3z M208.9,29.6   c8.1,0,14.8,6.6,14.8,14.8s-6.6,14.8-14.8,14.8c-8.1,0-14.8-6.6-14.8-14.8S200.7,29.6,208.9,29.6z"/></g></svg>