<?xml version="1.0" encoding="utf-8"?>
<!DOCTYPE svg PUBLIC "-//W3C//DTD SVG 1.1 Tiny//EN" "http://www.w3.org/Graphics/SVG/1.1/DTD/svg11-tiny.dtd">
<svg version="1.1" baseProfile="tiny" id="Layer_1" xmlns="http://www.w3.org/2000/svg" xmlns:xlink="http://www.w3.org/1999/xlink"
	 x="0px" y="0px" viewBox="0 0 24 24" xml:space="preserve">
<g>
	<g>
		<path d="M13.904,23.375H6.1c-2.14,0-2.25-0.033-2.296-0.048c-0.146-0.044-0.302-0.165-0.392-0.255
			c-0.104-0.105-0.26-0.357-0.283-0.532c-0.015-0.107-0.017-1.396-0.017-2.155V7.387c0-2.138,0.033-2.248,0.047-2.295
			C3.202,4.948,3.321,4.791,3.411,4.7C3.515,4.595,3.77,4.436,3.948,4.414C4.072,4.399,5.763,4.398,6.1,4.398h2.491
			c2.192,0,2.276,0.051,2.374,0.109c0.038,0.023,0.124,0.076,1.575,1.525l2.719,2.719c1.447,1.445,1.506,1.543,1.525,1.575
			c0.028,0.046,0.054,0.089,0.073,0.357c0.023,0.051,0.036,0.106,0.036,0.165c0,0.044-0.007,0.087-0.02,0.126
			c0.013,0.34,0.02,0.873,0.02,1.724v7.686c0,2.143-0.032,2.247-0.047,2.298c-0.044,0.145-0.164,0.301-0.254,0.391
			c-0.103,0.103-0.354,0.26-0.53,0.284C15.947,23.373,14.515,23.375,13.904,23.375z M4.264,22.567c0.314,0,0.976,0.007,1.836,0.007
			h7.804c1.047,0,1.953-0.004,2.069-0.012c-0.011,0.008,0.035-0.04,0.058-0.06c0.024-0.024,0.052-0.065,0.06-0.079
			c-0.011-0.032,0.002-0.934,0.002-2.039v-7.686c0-0.589-0.006-1.087-0.015-1.449h-3.641c-1.323,0-2.4-1.077-2.4-2.4V5.214
			c-0.363-0.009-0.86-0.015-1.447-0.015H6.1c-1.051,0-1.96,0.005-2.072,0.011c0.02,0.001-0.032,0.039-0.054,0.059
			C3.951,5.292,3.922,5.334,3.915,5.348c0.012,0.02-0.003,0.834-0.003,2.039v12.998c0,1.046,0.005,1.952,0.012,2.068
			c-0.002-0.035,0.042,0.038,0.061,0.061c0.023,0.022,0.063,0.051,0.077,0.058C4.067,22.568,4.137,22.567,4.264,22.567z
			 M10.838,5.476V8.85c0,0.882,0.718,1.6,1.6,1.6h3.375c-0.25-0.257-0.637-0.649-1.12-1.131L11.975,6.6
			C11.499,6.124,11.1,5.73,10.838,5.476z"/>
	</g>
	<g>
		<path d="M19.241,19.602h-0.659c-0.221,0-0.4-0.18-0.4-0.4s0.179-0.4,0.4-0.4h0.659c0.328,0,0.64-0.004,0.716-0.011
			c0.006-0.005,0.047-0.042,0.069-0.061c0.024-0.024,0.053-0.066,0.06-0.08c-0.011-0.031,0.002-0.933,0.002-2.038V8.926
			c0-0.603-0.003-1.097-0.007-1.449h-3.648c-1.323,0-2.4-1.077-2.4-2.4V1.44c-0.363-0.009-0.86-0.015-1.447-0.015h-2.491
			c-1.051,0-1.96,0.005-2.071,0.011C8.03,1.439,7.993,1.476,7.97,1.494c-0.024,0.024-0.053,0.066-0.06,0.08
			c0.005,0.033-0.003,0.389-0.003,0.698v0.659c0,0.221-0.179,0.4-0.4,0.4s-0.4-0.18-0.4-0.4V2.272c0-0.298,0.006-0.817,0.047-0.954
			c0.043-0.145,0.164-0.302,0.253-0.393c0.103-0.104,0.357-0.264,0.537-0.285c0.122-0.015,1.813-0.016,2.151-0.016h2.491
			c2.192,0,2.276,0.051,2.374,0.109c0.037,0.022,0.124,0.075,1.575,1.525l2.719,2.719c1.55,1.55,1.574,1.646,1.6,1.757
			c0.004,0.017,0.011,0.045,0.018,0.224c0.011,0.037,0.017,0.076,0.017,0.117c0,0.033-0.004,0.065-0.011,0.096
			c0.006,0.306,0.011,0.833,0.011,1.754v7.686c0,2.143-0.032,2.247-0.047,2.298c-0.044,0.145-0.165,0.301-0.254,0.391
			c-0.103,0.103-0.354,0.26-0.529,0.284C19.997,19.592,19.629,19.602,19.241,19.602z M14.833,1.702v3.374c0,0.882,0.718,1.6,1.6,1.6
			h3.361c-0.254-0.268-0.637-0.662-1.106-1.131l-2.719-2.719C15.494,2.351,15.095,1.957,14.833,1.702z"/>
	</g>
</g>
</svg>
