<svg version="1" xmlns="http://www.w3.org/2000/svg" viewBox="0 0 300 300"><g fill="#353535"><path d="M166.6 2.5C96.1 15.8 56 91.4 84.5 157.3l3.5 8.2L47.6 206c-22.2 22.3-41.3 41.9-42.5 43.6-3.2 4.8-5.4 14.7-4.6 20.9 2.7 22 26.1 35.3 46 26.2 5.3-2.5 11.1-7.9 47-43.8l41.1-41 6.7 3.1c15.6 7 35.8 10.8 52.4 9.6 49.3-3.5 88.7-35.9 101.8-83.7 3.5-12.8 4.4-33.3 2.1-46.8-4.9-28.3-20.5-53.7-43.5-71.2-9.3-7.1-26.7-15.4-38.6-18.5-12.7-3.3-36.4-4.2-48.9-1.9zm35.5 18c35.6 6.2 63.6 30.4 74.2 64.1 10.5 33.2 1.7 69.3-22.8 93.9-11.8 11.9-25.4 19.9-42.1 24.7-6.8 2-10.2 2.3-24.4 2.3s-17.6-.3-24.5-2.3c-32.1-9.2-56.4-33.5-65.7-65.9-3.1-10.6-3.3-37-.4-47.8 12.5-46.8 59-77.2 105.7-69zM100.3 183.2c2.5 3.4 13.3 14.1 17.7 17.7l2.5 2-37 37.2c-20.3 20.4-38.8 38.4-40.9 40-7.2 5.4-18.3 3.3-23.3-4.2-2.8-4.3-3.4-11.8-1.3-16 1.2-2.4 78-79.9 79.1-79.9.4 0 1.8 1.5 3.2 3.2z"/><path d="M179 48c-21.4 2.9-40.4 16.2-49.8 35-4.4 8.8-7.2 19.2-7.2 27 0 5 1.3 7 4.5 7s4.5-2 4.5-7c0-10.9 5.9-25.1 14.3-34.6 9.5-10.6 21.5-16.7 35.9-18.3 6-.7 8.6-1.4 9.5-2.7 1.7-2.4 1.7-3-.7-5.4-2.1-2.1-2.4-2.1-11-1z"/></g></svg>